<mxfile host="app.diagrams.net" modified="2023-09-04T07:08:45.834Z" agent="Mozilla/5.0 (Macintosh; Intel Mac OS X 10_15_7) AppleWebKit/537.36 (KHTML, like Gecko) Chrome/116.0.0.0 Safari/537.36" version="21.3.7" etag="sbBrZ3cRK9SD8KSZioVN" type="github">
  <diagram name="Page-1" id="SlQYWiTcrZ3OikewNEqC">
    <mxGraphModel>
      <root>
        <mxCell id="0" />
        <mxCell id="1" parent="0" />
      </root>
    </mxGraphModel>
  </diagram>
</mxfile>
